<?xml version="1.0" encoding="utf-8"?>
<!-- Generator: Adobe Illustrator 26.5.0, SVG Export Plug-In . SVG Version: 6.00 Build 0)  -->
<svg version="1.1" id="Layer_1" xmlns="http://www.w3.org/2000/svg" xmlns:xlink="http://www.w3.org/1999/xlink" x="0px" y="0px"
	 viewBox="0 0 147.1 152.7" style="enable-background:new 0 0 147.1 152.7;" xml:space="preserve">
<style type="text/css">
	.st0{fill:#F9B7AD;}
	.st1{fill:#F8A99B;}
	.st2{fill:#F7A99B;}
	.st3{fill:#A4A09B;}
	.st4{fill:#DCD7D0;}
	.st5{fill:#534D42;}
	.st6{fill:#D3C9BF;}
	.st7{fill:#534D41;}
	.st8{fill:#DBD7D0;}
	.st9{fill:#D5CAC0;}
	.st10{fill:#544E42;}
	.st11{fill:#555044;}
	.st12{fill:#AAA29A;}
	.st13{fill:#D5CBC0;}
	.st14{fill:#554F44;}
	.st15{fill:#BFB6AD;}
	.st16{fill:#3C3020;}
	.st17{fill:#F2EFE8;}
	.st18{fill:#F3A99C;}
	.st19{fill:#7A6B60;}
	.st20{fill:#3C301F;}
	.st21{fill:#504535;}
	.st22{fill:#C0B8AF;}
	.st23{fill:#E4E1DB;}
	.st24{fill:#615749;}
	.st25{fill:#514636;}
	.st26{fill:#E3E0D9;}
	.st27{fill:#C1B8AF;}
	.st28{fill:#5E5245;}
	.st29{fill:#1E1915;}
	.st30{fill:#F5D068;}
	.st31{fill:#ECEDEE;}
	.st32{fill:#725E53;}
	.st33{fill:#54493C;}
	.st34{fill:#201B17;}
	.st35{fill:#F6D169;}
	.st36{fill:#F3F5F7;}
	.st37{fill:#C2BAB1;}
	.st38{fill:#DBD6CF;}
	.st39{fill:#63584A;}
	.st40{fill:#665A4D;}
	.st41{fill:#584E40;}
	.st42{fill:#675D51;}
	.st43{fill:#E4E0D9;}
</style>
<g>
	<path class="st0" d="M134.8,25.5c-3.3,6.6-6.9,12.9-11.1,18.9c-0.3,0.4-0.7,0.8-1.2,0.8c-5.8,0-8.5-4.5-11.4-8.4
		c-2.3-3.1-2.6-6.6-0.3-9.7c5.2-7.2,12.4-12.3,18.9-18c0.7-0.6,1.8-0.7,2.8-0.5c1.6,0.3,1.5,1.9,2.2,2.9
		C134.8,16.2,134.8,20.9,134.8,25.5z"/>
	<path class="st1" d="M132.9,9.5c-7.7,5.4-14.6,11.7-20.7,18.8c-1.8,2.1-1.7,4.8,0.3,7.3c3.1,3.9,5.8,8.1,11.3,8.9
		c3.1,4.6,2.9,8.7-1.6,12.3c-3.6,0.7-5.2-1.9-6.4-4.3c-3-6.5-7.7-11.4-13.1-15.9c-4.9-4.1-4.8-6.5,0.1-10.8
		c7.4-6.6,15.3-12.4,23.3-18.3c0.1-0.3,0-0.6-0.2-0.9c1,0,2,0,3,0C130.1,7.7,133.3,6.2,132.9,9.5z"/>
	<path class="st2" d="M22,56.7c-4.5-3.6-4.7-7.7-1.6-12.3c2.5-2.9,5.9-4.8,8.4-7.7C32.9,32.2,33,30,28.3,26
		c-5.1-4.3-9.5-9.3-14.7-13.4c-1.1-0.8-2-1.7-2.3-3.1c0.3-1.8,2.6-1.4,3.1-2.9c1.3,0,2.7,0,4,0c-0.3,0.2-0.4,0.5-0.2,0.9
		c7.6,5.5,15.3,11,22.3,17.2c6.2,5.5,6.2,7.8-0.1,12.8c-4.9,3.9-8.6,8.6-11.4,14.1C27.5,54.3,26.1,57.4,22,56.7z"/>
	<path class="st3" d="M132.8,135.2c0,3.6,0,7.3,0.1,10.9c-40.5,0-81,0-121.5,0c0-3.6,0-7.3,0.1-10.9c0.6-0.3,1.2-0.2,1.7,0.3
		c1.1,7.4,6.2,7.6,12.3,7.6c31.2-0.1,62.3-0.1,93.5,0c6.1,0,11.2-0.2,12.3-7.6C131.6,135,132.2,134.9,132.8,135.2z"/>
	<path class="st4" d="M22,56.7c3.6-2.2,5.1-5.8,6.9-9.3c2.8-5.5,7.4-9.8,12.4-13.2c3.4-2.3,2.6-3.8,0.1-5.9
		C34.3,22.2,27.1,16.1,20,10c-0.8-0.7-2.2-1-1.9-2.6C29,12.7,39,19.5,49.6,25.4c3,1.6,5.6,4.1,9.2,4.3c4.4,3.9,3,9.5,4.1,14.4
		c1.2,5.3,1.6,10.8,3,16.1c2.2,7.7,1.2,15.4,0.7,23.1c-0.1,0.8-0.1,1.7-0.3,2.5c-0.1,0.5-0.4,1-0.8,1.4c-5,0-5.2-4.8-7.3-7.6
		c-0.1-0.5-0.2-1-0.2-1.5c1.7-7-0.9-12.9-5.3-18.1c-2.5-3-8.5-2.8-12.8,0.1c-2.6,1.7-4.7,4.1-8,4.7c-2,0-2.5,1.3-3.1,3
		c-1.9,5.9-6.1,7.9-12.6,6.4C16.6,67.9,19.7,62.5,22,56.7z"/>
	<path class="st4" d="M126.1,7.4c-3.6,5.4-9.4,8.5-13.9,12.8c-3.1,3-6.5,5.5-9.8,8.3c-2.1,1.7-2.9,3,0,5.2c6.3,4.8,12.2,10.1,15,18
		c0.7,2,3.1,3.3,4.8,4.9c2.6,5.6,5.3,11.2,5.7,17.5c-6.5,1.5-10.7-0.5-12.6-6.4c-0.6-1.7-1-3.1-3.1-3c-3.1-0.4-5.1-2.8-7.6-4.3
		c-9.7-5.7-13.4-2-17.5,6c-1.7,3.3-2.4,7.5-1.1,11.5c0,0.5,0,1-0.2,1.5c-1.8,2.7-2.4,6.5-6.6,6.9c-1.1-0.6-1.4-1.7-1.6-2.9
		c-1-7.6-1.1-15.2,0-22.8c2.9-7.5,3.2-15.4,4.5-23.2c0.5-2.9,0.4-6,3.2-7.9c8-2.4,14.3-7.8,21.5-11.6
		C113.4,14.8,119.3,10.3,126.1,7.4z"/>
	<path class="st5" d="M85.3,29.7c-1.3,9-2.7,17.9-4,26.9c-0.2,1.6-0.1,3.4-2.2,4c-3.5,1.8-4.5-3.1-7.1-2.8c-2.4,0.3-3.4,4.2-6.6,3.3
		c-0.5-0.1-0.9-0.4-1.3-0.7c-3-10-3.7-20.4-5.3-30.7c1.5,0,2.9-0.1,4.4-0.1c3.6,3,3.1,7.5,3.7,11.4c0.6,3.4,0.5,6.7,5.6,5.3
		c1-0.3,2.1,0.7,3.5,1c1.2-3.9,1.5-7.8,2.1-11.7c0.3-2.4,0.9-4.5,2.9-6.1C82.4,29.6,83.8,29.7,85.3,29.7z"/>
	<path class="st6" d="M80.9,29.6c-1.1,7.3-2.2,14.6-3.4,23c-3.5-5.2-6.8-7.5-10.6,0.7c-1.4-9.2-2.5-16.5-3.7-23.7c2.2,0,4.5,0,6.7,0
		c3,2.1,1.9,5.2,2.1,7.7c0.3-2.5-0.8-5.6,2.1-7.7C76.5,29.6,78.7,29.6,80.9,29.6z"/>
	<path class="st7" d="M74.2,29.6c0,3.4,0,6.9-0.1,10.3c0,1.5-0.6,2.6-2.3,2.5C70.4,42.3,70,41.2,70,40c0-3.4,0-6.9-0.1-10.3
		C71.4,29.6,72.8,29.6,74.2,29.6z"/>
	<path class="st4" d="M131.9,135.1c-0.1,10.1-0.1,10.1-10.4,10.1c-33.8,0-67.5,0-101.3,0c-9,0-7.8,0.8-7.9-8.1c0-0.7,0-1.3,0-2
		c0.8-2.9,3-1.6,4.7-1.6c1.9,0,3.7,0.7,5.2,1.3c-3.2-2.4-8.2-2.6-10.6-6.9c-0.1-4.6,1.1-9.1,1.8-13.6c2.3-0.7,3.5,0.9,4.3,2.5
		c6.6,12.6,18.4,17.2,31,20c16.3,3.7,32.9,3.6,49.1-0.6c11.9-3.1,22.9-7.8,28.8-19.9c0.7-1.5,1.8-3.4,4.2-2c0.8,4.5,1.8,9,1.8,13.6
		c-2.2,4.4-7.3,4.4-10.1,6.7C125.3,134.6,128.7,131,131.9,135.1z"/>
	<path class="st7" d="M130.8,114.3c-0.5,0.1-1.2,0.1-1.3,0.4c-5.5,14.9-18.1,20.6-32,23.8c-21.6,4.9-43.1,4.6-63.8-4.5
		c-8.4-3.7-15.3-9.3-18.5-18.4c-0.3-0.8-0.8-1.5-1.8-1.3c1.3-3.3,2.5-6.7,3.8-10c0.2,0.1,0.5,0.2,0.7,0.2c1.2,0.8,1.9,2,2.1,3.3
		c2,12.5,10.9,18.6,21.6,22.3c20.2,6.9,40.7,6.7,60.9,0.1c10.7-3.5,19.7-9.6,21.8-22.1c0.3-1.6,0.9-3.2,2.8-3.8
		C128.2,107.6,129.5,111,130.8,114.3z"/>
	<path class="st8" d="M59.1,78.6c0,0.3,0,0.5,0,0.8c-5.5,3.8-8.7,10.1-14.7,13.3c-3.5,0.4-7-0.2-10.4,0.7c-1.1,0.3-2.4-0.2-3.3,0.4
		c-4.6,2.9-8.2,1-11.6-2.3c-1.6-2.7-2.7-5.6-2.5-8.8c0.6-5,2.9-8,8.4-8.6c2.9-0.3,3.7-3.3,4.4-6c0.7-2.7,2.1-4.7,5.3-3
		c0.9,0.9,0.8,2.1,1.1,3.2c1.2,5.4,3.8,7.7,9.4,8.3c3.1,0.3,6.2,0.3,9.3,0C56.4,76.5,58.1,76.7,59.1,78.6z"/>
	<path class="st0" d="M11.2,9.5c2.1,0.3,3.7,1.6,5.1,2.8c5.1,4.5,10.1,9,14.9,13.8c3.9,3.9,4,6.9,0,10.7c-3.2,3-5.3,8-10.9,7.7
		c-4-6.7-9.5-12.7-10.6-20.8C9.2,18.9,7.8,13.9,11.2,9.5z"/>
	<path class="st9" d="M19,91.4c4.8,3.4,9.6,0.2,14.5,0c7.2,1.6,14.3-1.1,21.4-0.6C57,91,59.2,90.4,61,92c0.5,2.9-1.7,2.6-3.3,2.8
		c-2.9,0.3-5.8,0-8.7,0.2c-2.9,0.2-3.5,2.2-3.6,4.7c-2.2,3.7-5.7,6-8.9,8.6c-3,0.6-5.2-1.2-7.7-2.5c-1.8-0.8-2.9-2.4-4.6-3.4
		c-2.8-1.9-3.6-4.8-3.8-8C19.9,93.3,19.5,92.4,19,91.4z"/>
	<path class="st10" d="M34.2,65.5c-2.6-0.6-2.6,1.3-2.8,2.9c-0.6,4.8-2.5,8.3-8.1,8c-4.4-0.2-4.2,4.5-6.7,6.2
		c-0.1-2.8-0.1-5.6-0.2-8.4c2.5-0.7,4.6-2.3,7.3-2.3c2.9-0.1,3.3-2.6,3.3-4.6c0-4,1.8-4.9,5.2-3.8C33.2,63.9,34.9,63.6,34.2,65.5z"
		/>
	<path class="st11" d="M11.6,127.9c5.8,2.3,12,4,16.1,10.8c-5.7-1.8-10.2-4.4-15.4-3.6c0,0-0.5,0-0.5,0s-0.4,0.2-0.4,0.2
		C11.4,132.8,11.5,130.3,11.6,127.9z"/>
	<path class="st12" d="M20.4,94.3c1.6,2.3,3.2,4.6,4.9,7c1.4,2.5,2.7,4.9,1.4,7.8c-2.3,3.3-4.2,0.9-5.9-0.6
		c-1.4-1.1-1.5-3.3-3.2-4.2c0,0-0.4,0.1-0.4,0.1C18.3,101,20.4,98,20.4,94.3z"/>
	<path class="st13" d="M17.5,104.3c2-1.2,2.4,0.7,3.3,1.7c1.3,1.6,2.5,3.4,4.7,4.1c1.7-0.2,2.7,1,3.9,1.9
		c12.7,10.5,27.5,16.5,43.9,16c16.2-0.5,31.1-6.2,43.2-17.6c2-1.2,3.5-2.9,4.9-4.8c1.2-1.6,2.5-3.8,5.2-2.2c0.2,0.3,0.4,0.5,0.4,0.9
		c-1.9,20.2-16.4,26.9-33.2,30.5c-16.7,3.7-33.6,3.3-50.1-1.7C29.4,128.8,18.3,121.1,17.5,104.3z"/>
	<path class="st8" d="M85,79.4c0-0.3,0-0.5,0-0.8c1-1.9,2.8-2.1,4.7-1.9c2.8,0.3,5.6,0.3,8.4,0.1c6.5-0.4,9-2.7,10.3-9.2
		c0.2-0.8,0.3-1.6,0.8-2.3c3.1-2,4.7-0.1,5.4,2.6c0.9,4,2.8,6.3,7.1,6.9c4.9,0.6,4.6,5.3,6,8.6c-0.4,2.8-1,5.6-2.8,8
		c-3.3,3.4-6.8,5.2-11.4,2.3c-0.9-0.6-2.3-0.2-3.4-0.4c-3.4-0.9-6.9-0.3-10.4-0.7c-2.4-0.5-4-2.4-5.4-4.1
		C91.7,85.1,88.1,82.5,85,79.4z"/>
	<path class="st13" d="M110.6,91.5c1.1,0,2.7-0.5,3.3,0c3.8,3.6,7.4,0.8,11.1-0.1c-0.4,1-0.9,1.9-1.3,2.9c-0.5,3-1,6.1-3.8,8
		c-1.6,1-2.8,2.6-4.6,3.4c-2.4,1.2-4.6,3-7.6,2.5c-3.4-2.8-7.2-5.2-9.6-9.1c0.1-2.7-1.2-3.8-3.8-3.8c-3.1,0-6.1-0.7-9.2,0
		c-2.2,0.5-4.9,0.6-4.4-3.2c0.6-1,1.6-1.5,2.7-1.7C92.5,90.3,101.5,92.7,110.6,91.5z"/>
	<path class="st10" d="M127.8,83.4c-2.3-4.2-4.9-7.4-10.5-7.6c-2.9-0.1-4-3.9-4.5-6.9c-0.3-1.6,0.3-4-2.8-3.3c-0.7-1.9,1-1.6,1.9-2
		c3.4-0.9,5.3-0.2,5.2,3.9c0,2.9,1.5,4.7,4.8,4.9c2,0.1,3.9,1.3,5.9,2C127.8,77.3,127.8,80.4,127.8,83.4z"/>
	<path class="st14" d="M131.9,135.1c-5.2-0.8-9.7,1.7-15.6,3.9c4-7.2,10.4-8.8,16.3-11.2c0.1,2.5,0.1,4.9,0.2,7.4
		c0,0-0.4-0.2-0.4-0.2L131.9,135.1z"/>
	<path class="st12" d="M118.9,101.2c1.6-2.3,3.2-4.6,4.9-6.9c-0.1,3.3,1.9,6.1,2.8,9.1c-3.8,1.6-5,6.1-8.6,7.9
		C115.4,107.7,117.3,104.5,118.9,101.2z"/>
	<path class="st15" d="M64.1,60.4C66.8,61,68,59,69,57.1c2.2-3.9,4-3.3,6.1,0.1c0.9,1.5,1.7,3.3,3.9,3.4c-0.1,8-0.1,15.9-0.2,23.9
		c-4.5-0.7-9.1-0.7-13.6,0c-0.1-6.1-0.1-12.2-0.1-18.4C65.1,64.2,65.2,62.2,64.1,60.4z"/>
	<path class="st16" d="M34.2,65.5c-0.6-0.7-1.3-1.3-1.9-2c2.5-1.7,4.9-3.3,7.4-4.9c6.6-4.2,12.8-2.9,17.1,3.7
		c2.5,3.8,3.5,8.2,4.1,12.6c0.2,1.6-0.2,3-1.8,3.7c-4.1,0-8.2,0-12.3,0C38,78.5,34.1,74.5,34.2,65.5z"/>
	<path class="st17" d="M47.3,93.5c4.6-0.7,9.3,1.2,13.7-1.2c-5.2-1.3-10.7,0.7-15.8-1.1c2.5-3,5.1-5.9,7.5-8.9
		c1.7-2,3.7-3.1,6.4-2.9c3.2,1.8,4.2,5.1,5.7,8.1c0.4,0.1,0.7,0.4,0.9,0.8c0.3,0.9,0.3,1.8,0.1,2.7c-0.9,4.9-5.1,5.5-8.9,6.7
		c-1.3,0.2-2.6,0.1-3.9,0.1C50.3,97.4,47.2,97.6,47.3,93.5z"/>
	<path class="st18" d="M65.2,88c-0.1-0.2-0.3-0.3-0.4-0.5c0.1-0.2,0.2-0.4,0.3-0.6c1.5-3.6,4.5-4.5,7.9-4.2c3,0.3,5.7,1.4,6,5.2
		C74.7,95.1,70.1,95.1,65.2,88z"/>
	<path class="st19" d="M78,88.3c-0.8-4.6-5.2-6.6-9.5-4.2c-1.3,0.7-2.3,1.8-3.4,2.8c0.1-0.8,0.1-1.6,0.2-2.4c4.5-3.7,9.1-3.4,13.6,0
		c0.4,0.6,0.8,1.2,1.1,1.8c0.7,1.1,0.5,1.8-0.6,2.4C78.9,88.8,78.4,88.6,78,88.3z"/>
	<path class="st20" d="M111.9,63.5c-0.6,0.7-1.3,1.3-1.9,2c0.1,8.8-3.8,12.9-12.7,13c-4.1,0-8.2,0-12.3,0c-0.4-0.3-1-0.5-1.1-0.9
		c-1.9-4.1,1.7-15,6.3-18.8c4-3.4,9.5-3.4,14.7,0C107.2,60.4,109.5,62,111.9,63.5z"/>
	<path class="st17" d="M79.2,88.4c1.1-0.3,0.8-1.2,0.9-2c1.2-2.7,1.9-5.7,5-7c4.5-0.5,6.5,3.1,9,5.7c1.8,1.9,3.3,4,4.9,6.1
		c-5.3,1.3-10.5,0.8-15.8,0.2c-0.7,0.3-1.4,0.6-2.1,0.9c-1.7-0.1-2.5-1.1-2.6-2.8C78.5,89,78.8,88.7,79.2,88.4z"/>
	<path class="st21" d="M45.2,91.2c4.3,0,8.6,0.1,12.9,0.1c1.1,0,2.4-0.7,2.9,0.9c-8.2,0.1-16.4,0.2-24.6,0.3c-1.1,0-2.4,0.3-3-1.1
		C37.4,91.3,41.3,91.2,45.2,91.2z"/>
	<path class="st7" d="M118.9,101.2c0.4,3.4,0.1,6.8-0.9,10.1c-6.7,8.9-16.9,12-26.6,15.5c-22.2,8-41.9,1-60.8-10.6
		c-2.3-1.4-3.4-4-5-6.1c-0.1-2.9-0.2-5.9-0.3-8.8c1.4,1,2.8,2,4.2,3c2.2,2.8,3.6,6.2,6.9,8.2c2.4,1.4,4.5,1.7,6.9,0.4
		c0.8,0,1.4,0.4,1.9,1c0.4,0.6,0.6,1.3,0.7,2.1c2.7,3.6,7.1,3.9,10.8,5.2c11.8,4,23.7,3,35.3-1.3c2.7-1,5.8-1.3,8.1-3.3
		c0.4-0.3,0.8-0.5,1.2-0.6c5.8-2.3,10.7-5.7,13.5-11.6C116.1,103.3,117.5,102.3,118.9,101.2z"/>
	<path class="st22" d="M43.4,113.3c-0.6,3.7-2,4.3-5.4,2.3c-4.5-2.7-8.8-5.2-8.6-11.3c2.3,1,4.6,2,6.9,3c1.9,0.8,1.5-2.4,3.3-1.8
		c2.5,0.1,5.1-0.1,6.8,2.3C47.4,110.8,45.9,112.3,43.4,113.3z"/>
	<path class="st23" d="M47.3,93.5c1.4,2.3,3.7,2.7,6.1,3c0.1,1.3-0.7,1.9-1.8,2.3c-2.4,0.5-4.7,2.5-7.3,0.9
		C44,96.9,41.1,92.9,47.3,93.5z"/>
	<path class="st24" d="M44.3,99.6c2.3-0.7,4.6-1.4,6.9-2.2c0.3,0.4,0.5,0.8,0.5,1.3c-0.7,2.2-2.6,2.5-4.4,3.2
		c-2.8,1.3-4.8,4-8.1,4.3c-1.6,0.7-1,3.2-3,3.8c-0.8-1,0.2-1.8,0.1-2.7C38.3,104.1,41.3,101.8,44.3,99.6z"/>
	<path class="st25" d="M83.1,91.4c5.3-0.1,10.5-0.2,15.8-0.2c3.9,0.1,7.8,0.2,11.7,0.3c-1.2,1.7-3,1-4.5,1c-6.7,0-13.4,0-20.1-0.1
		C85,92.3,83.7,93,83.1,91.4z"/>
	<path class="st26" d="M79.1,89.4c0.7,1,1.3,1.9,2,2.9c0.2,1.1,0.7,1.9,2,1.6c4.2-1,8.5-0.4,12.8-0.5c5.8-0.1,6,0.3,3.2,5.8
		c-0.5,0.8-1.2,0.6-1.8,0.2c-2.7-1.5-5.7-1.8-8.6-2.2c-0.7,0,0.1,0.9-0.1,0.3c-0.1-0.3,0-0.5,0.2-0.4c2.7,0.6,5.4,0.9,8,2
		c0.6,0.5,1.3,0.8,1.7,1.4c0.1,3.4-2.5,4.2-5,5.2c-0.8,0.2-1.5,0.4-2.2,0.8c-2.1,0.8-4.2,0.9-6.4,0.4c-3.3,0.1-6.2-1.2-8.7-3.1
		c-4.8-3.7-4.9-7.9-0.4-11.9C76.6,90.9,77.2,89.1,79.1,89.4z"/>
	<path class="st27" d="M114.7,104.3c-0.2,8.4-6.8,10.4-12.8,13c-2.5-2.6-4.7-5.3-4.3-9.3c1.7-2.5,4.3-2.4,6.8-2.5
		c1.8-0.6,1.5,2.7,3.4,1.8C110.1,106.3,112.4,105.3,114.7,104.3z"/>
	<path class="st28" d="M107.9,107.3c-0.1,0.9,0.8,1.8-0.2,2.8c-0.9-1.3-1.8-2.6-2.7-3.8c-3.4-0.6-5.7-2.5-7.1-5.7
		c-0.4-0.3-0.7-0.7-1.1-1c-0.1-0.2-0.2-0.5-0.3-0.7c0.3,0.1,0.5,0.1,0.8,0.2c0.6,0,1.1,0.1,1.7,0.1
		C102.6,101.2,105.5,104,107.9,107.3z"/>
	<path class="st29" d="M45.2,66.3c0.7-2.9,2.8-4.2,5.5-3.5c2.9,0.8,5.2,2.7,5.5,6.3c0.3,3.5-1.1,5.7-4.4,6.8
		c-2.9,0.9-5.5,0.5-7.5-2.1c-1-1.3-1-2.7-1-4.2C43.1,68.1,44,67.2,45.2,66.3z"/>
	<path class="st30" d="M41.2,69.1c-0.9,2.2,0.7,4.1,0.8,6.2c-5-2.3-6.9-6.4-5-10.5c2.6-5.4,9-7.6,14.7-4.6c-3.8,0.9-7.8,0.9-9.4,5
		C42.6,66.7,42.6,68.1,41.2,69.1z"/>
	<path class="st31" d="M41.2,69.1c-0.1-1.4-0.6-3,1.1-3.9c1.1,0,2.1,0.4,2.9,1.2c0.1,1.6-0.2,2.9-2,3.3
		C42.5,69.5,41.8,69.3,41.2,69.1z"/>
	<path class="st23" d="M46.3,100.6c1.6-0.8,3.3-1.5,4.9-2.3c1.9-0.8,3.8-1.9,6-1.4c0,0,0.2-0.3,0.1-0.4c0-0.1-0.1-0.3-0.2-0.4
		c3.5-1.1,6.9-2.3,8-6.5c3.5,1.2,6.1,3.3,6.6,7.2c0.4,3.8-2.1,6-4.9,7.8c-2.2,1.4-4.7,2.3-7.4,2.2c-1.9,0.3-3.7,0.3-5.2-1.3
		c-0.8-1.7,0.4-2.2,1.5-2.6c-0.7,0.1-1.2,0.6-1.8,1.1c-0.3,0.4-0.6,0.7-1,1c-0.7,0.3-1.4,0.5-2.1,0.4
		C48.4,104.7,45.9,104,46.3,100.6z"/>
	<path class="st32" d="M59.2,105.4c2.4,0,4.5-0.8,6.5-2c5.2-3.2,5.7-6.5,1.6-11.2c-0.7-0.8-1.5-1.6-2.3-2.5C64,89,64.4,88.5,65.2,88
		c0.5,0.2,1.1,0.2,1.3,0.5c3.9,4.7,7.7,3.4,11.5-0.2c0.4,0,0.8,0,1.1,0c0,0.3-0.1,0.7-0.1,1c-0.1,0.1-0.3,0.2-0.4,0.3
		c-2.5,2.8-6,5.7-4.1,9.9c1.8,4,6,5.5,10.3,5.8c1.2,3.7-1.6,3.4-3.6,3.3c-2-0.1-3.8-1.2-5.2-2.7c-2.7-2.9-5.3-3-8.1-0.1
		c-1.5,1.6-3.4,2.8-5.6,3C60.3,109,57.8,108.8,59.2,105.4z"/>
	<path class="st33" d="M57.1,96.1c1.2,0.4,2.6-0.5,3.7,0.9c-3.3,0.5-6.5,0.9-9.7,1.3c0-0.3,0-0.6,0-0.9c0.7-0.3,1.5-0.7,2.2-1
		C54.6,96.3,55.9,96.2,57.1,96.1z"/>
	<path class="st34" d="M100,69.4c1.7,2.9,0.4,4.7-2.2,6c-2.9,1.4-5.8,1.7-8.2-1c-2.3-2.6-2.3-5.5-0.6-8.3c3.2-5.2,7-5,10,0.2
		C100,67.2,100.7,68,100,69.4z"/>
	<path class="st35" d="M101.9,65.2c-1.6-3.8-5.1-4.3-8.7-4.9c4.3-3,10.5-1.2,13.6,3.8c2.5,4.1,0.8,8.4-4.5,11.2
		c-0.3-2.2,1.8-4,0.7-6.2C101.6,68.1,101.5,66.7,101.9,65.2z"/>
	<path class="st36" d="M101.9,65.2c1.6,1,1.2,2.5,1.1,4c-1,0.1-2,0.2-3,0.3c-0.9-0.8-1.1-1.9-1-3.1C100,66,100.9,65.6,101.9,65.2z"
		/>
	<path class="st37" d="M59.2,105.4c-0.3,1.5,0.3,2.2,1.7,2.3c1.5,0.1,3.1-0.3,4.1-1.3c4.6-4.7,9-4.9,13.9-0.1
		c1.3,1.2,4.6,3.7,5.9-0.9c2.1,0,4.1,0.2,5.9-1.1c4.9,0.9,6.8,4.9,8.8,8.6c0.8,1.4,1.6,3.1-0.3,4.4c-1.7,0.8-3.5,1.1-5.3,1
		c-4.8-0.2-9.5,0.5-14.2,1.9c-5.2,1.6-10.4,1.6-15.6,0c-4.5-1.3-9-2-13.7-2c-2.2,0-4.7,0.1-6.4-2c0-0.6,0-1.3,0-1.9
		c1.5-4.7,3.8-8.7,8.9-10.1l-0.1,0c0.5-0.4,0.9-0.3,1.1,0.3C55.7,105.8,57.6,105.2,59.2,105.4z"/>
	<path class="st38" d="M44.2,116.3c7.7-0.1,15.5-0.4,22.9,2.4c3.1,1.2,6.7,1.2,9.7,0c7.5-2.8,15.2-2.5,22.9-2.4
		c0.5,0.2,0.8,0.5,0.9,1c-9,6.4-19.3,8.3-29.9,8.4c-8.5,0-16.6-2.5-24.4-6C45.1,119,43,118.8,44.2,116.3z"/>
	<path class="st39" d="M100.8,117.3c-0.3-0.3-0.6-0.7-0.9-1c-0.4-6-5.6-8.3-9-12c0.7,0,1.4,0.1,2.1,0.1c2.4,0.4,4.9,0.7,4.9,4
		c1.9,2.7,3.7,5.5,4.1,8.9C101.5,117.3,101.1,117.3,100.8,117.3z"/>
	<path class="st40" d="M53.1,104.2c-3.1,3.3-6.9,5.9-8.9,10.1c-0.3-0.3-0.5-0.7-0.8-1c1-1.7,1.9-3.3,2.9-5c-0.1-3.4,2.5-3.6,4.9-4
		C51.9,104.3,52.5,104.2,53.1,104.2z"/>
	<path class="st6" d="M51.2,104.3c-1.6,1.3-3.3,2.7-4.9,4c-2.3-1-5-0.5-7.2-2.1c1.8-2.6,4.2-4.4,7.1-5.6
		C47.4,102.5,49.3,103.4,51.2,104.3z"/>
	<path class="st6" d="M97.8,108.4c-1.6-1.3-3.2-2.7-4.9-4c1.9-0.9,3.8-1.8,4.9-3.7c2.9,1.2,5.4,2.9,7.1,5.7
		C102.8,107.8,100.1,107.4,97.8,108.4z"/>
	<path class="st41" d="M96.8,99.6c-3.1-0.8-6.2-1.5-9.3-2.3c3.6-0.8,6.8-0.1,9.8,1.8C97.1,99.2,96.9,99.4,96.8,99.6z"/>
	<path class="st42" d="M54.2,104.5c-0.4-0.1-0.8-0.2-1.1-0.3c1.9-2.7,5-2.7,8.8-4.6C59.5,103.3,56.2,102.8,54.2,104.5z"/>
	<path class="st43" d="M65.4,108.8c5.3-4.8,8-4.9,13.4-0.1C74.2,110.8,70.1,110.9,65.4,108.8z"/>
</g>
</svg>
