<?xml version="1.0" encoding="utf-8"?>
<!-- Generator: Adobe Illustrator 26.5.0, SVG Export Plug-In . SVG Version: 6.00 Build 0)  -->
<svg version="1.1" id="Layer_1" xmlns="http://www.w3.org/2000/svg" xmlns:xlink="http://www.w3.org/1999/xlink" x="0px" y="0px"
	 viewBox="0 0 200.2 179.2" style="enable-background:new 0 0 200.2 179.2;" xml:space="preserve">
<style type="text/css">
	.st0{fill:#040302;}
	.st1{fill:#D2843B;}
	.st2{fill:#E5E3D2;}
	.st3{fill:#AD6428;}
	.st4{fill:#1E3741;}
	.st5{fill:#223C48;}
	.st6{fill:#3F5160;}
	.st7{fill:#F38D97;}
	.st8{fill:#D2577C;}
</style>
<g>
	<path class="st0" d="M50.5,45.7C42.7,51.8,34.8,57.9,27,64.1c-10.3,8.3-12.2,15-6.3,26.9c6.4,12.8,8.9,26.3,10.1,40.2
		c0.3,3.8,0.4,7.7,1.1,11.4c0.6,3.4,2.5,6.4,6.2,7c3.4,0.6,5.5-1.8,7.3-4.3c2.4-3.5,3.5-7.5,4.3-11.6c1.9-10.6,0.6-21.2,1-31.8
		c2.6,2.9,2.6,7,5,10c3,10.1,7.8,19.6,11.3,29.5c1.2,3.2,3.3,5.6,6,7.7c10.8,8.3,23.2,9.8,35.9,7.2c7.9-1.6,16.2-4.9,20-12.7
		c5.1-10.2,9.2-20.9,12.7-31.7c1.3-3.1,2.6-6.1,4-9.2c1.9,4.6,0.8,9.5,0.8,14.2c0.1,8,0.1,16,3,23.6c2.4,6.4,6.3,9.8,9.9,9
		c3.7-0.8,6-5.1,6.5-11.8c1.1-16.3,3.1-32.4,10.8-47.3c1.3-2.5,2.1-5.3,2.6-8c1.1-5.8-0.2-11.2-4.8-15c-9.1-7.5-18.5-14.7-27.8-22
		C114.7,18.6,82.1,18.8,50.5,45.7z"/>
	<path class="st1" d="M55.7,112c-2.3-3-2.4-7.2-5-10c-0.1-18.8-0.1-37.5-0.2-56.3c31.6-26.8,64.2-27.1,96.2,0
		c-0.1,16.8-0.1,33.6-0.2,50.4c0,2.3,0.1,4.7-0.9,6.8c-1.3,3.1-2.6,6.1-4,9.2c-9.8-1.6-19.1-4.8-26.9-11.1
		c-6.6-5.3-11-11.6-10.5-20.8c0.6-10,0.2-20,0.1-30c0-5.3-2.3-8.5-6-8c-4.7,0.5-5.6,4-5.5,8c0,10-0.4,20,0.2,30
		c0.5,9-3.6,15.3-10,20.6C75,107.1,65.7,110.4,55.7,112z M81.7,80.8c-0.5-3-2.3-5-5.9-4.9c-3.6,0.2-5.4,2.5-5.2,5.9
		c0.2,3.2,2.1,5.2,5.5,5.1C79.7,86.7,81.6,84.8,81.7,80.8z M126.7,81.2c-0.3-3.2-2.1-5.3-5.6-5.3c-3.6,0-5.5,2.2-5.5,5.6
		c0,3.2,1.8,5.3,5.2,5.3C124.4,86.9,126.4,85.1,126.7,81.2z"/>
	<path class="st2" d="M55.7,112c10-1.6,19.4-4.8,27.3-11.3c6.4-5.3,10.6-11.5,10-20.6c-0.6-10-0.1-20-0.2-30c0-4,0.8-7.5,5.5-8
		c3.7-0.4,6,2.7,6,8c0,10,0.5,20-0.1,30c-0.6,9.3,3.8,15.6,10.5,20.8c7.9,6.3,17.1,9.5,26.9,11.1c-3.5,10.9-7.6,21.6-12.7,31.7
		c-3.8,7.7-12.1,11.1-20,12.7c-12.7,2.5-25.1,1.1-35.9-7.2c-2.7-2.1-4.8-4.5-6-7.7C63.5,131.6,58.7,122.1,55.7,112z M109.8,135
		c6-0.6,12-1.4,15.6-7.1c0.7-1.1,2.3-2.7,0.6-3.9c-1.3-0.8-3.2-0.7-4.7,0.2c-0.4,0.2-0.5,0.9-0.8,1.2c-5.5,5.3-13.4,4.8-18.9-0.8
		c-1.6-1.7-4-1.6-5.6,0c-6,6.1-12.7,6.4-19.1,0.3c-1.8-1.7-4.1-1.8-5.3-0.9c-1.9,1.4,0,3.3,1,4.6c3.8,4.9,9.3,5.9,15.1,6.3
		c1,7.1,5,10.9,11.2,10.9C104.8,145.9,108.8,142,109.8,135z M98.6,103.9c-7.7,0-11,1.7-11.1,5.6c-0.1,5.2,5.6,11,10.9,11.2
		c5.2,0.1,11.1-5.5,11.3-10.7C109.9,105.7,106.7,103.9,98.6,103.9z"/>
	<path class="st3" d="M50.5,45.7c0.1,18.8,0.1,37.5,0.2,56.3c-0.4,10.6,0.9,21.3-1,31.8c-0.7,4.1-1.8,8.1-4.3,11.6
		c-1.8,2.5-3.9,4.9-7.3,4.3c-3.7-0.6-5.6-3.6-6.2-7c-0.7-3.7-0.7-7.6-1.1-11.4c-1.2-14-3.7-27.5-10.1-40.2
		c-5.9-11.9-4.1-18.6,6.3-26.9C34.8,57.9,42.7,51.8,50.5,45.7z"/>
	<path class="st3" d="M145.6,102.8c1-2.2,0.9-4.5,0.9-6.8c0.1-16.8,0.1-33.6,0.2-50.4c9.3,7.3,18.7,14.4,27.8,22
		c4.6,3.8,5.9,9.2,4.8,15c-0.5,2.7-1.3,5.6-2.6,8c-7.7,14.8-9.7,31-10.8,47.3c-0.5,6.7-2.7,11-6.5,11.8c-3.6,0.7-7.5-2.7-9.9-9
		c-2.9-7.6-2.9-15.6-3-23.6C146.4,112.3,147.5,107.5,145.6,102.8z"/>
	<path class="st4" d="M81.7,80.8c-0.2,4-2,6-5.6,6.1c-3.4,0.1-5.3-1.8-5.5-5.1c-0.2-3.4,1.5-5.8,5.2-5.9
		C79.4,75.8,81.2,77.8,81.7,80.8z"/>
	<path class="st4" d="M126.7,81.2c-0.4,3.9-2.4,5.7-5.9,5.6c-3.4,0-5.2-2.1-5.2-5.3c0-3.4,1.8-5.7,5.5-5.6
		C124.6,75.9,126.4,78.1,126.7,81.2z"/>
	<path class="st5" d="M87.5,135c-5.7-0.5-11.3-1.5-15.1-6.3c-1-1.3-2.9-3.2-1-4.6c1.3-0.9,3.5-0.9,5.3,0.9
		c6.4,6.1,13.1,5.7,19.1-0.3c1.6-1.6,4-1.7,5.6,0c5.5,5.7,13.4,6.1,18.9,0.8c0.3-0.3,0.5-1,0.8-1.2c1.5-0.9,3.5-1,4.7-0.2
		c1.7,1.1,0.1,2.8-0.6,3.9c-3.6,5.7-9.6,6.5-15.6,7.1c-2.4-0.4-4.9-0.9-7.3-1.3c-2.2-2.1-4.5-3.2-6.9-0.3
		C92.9,134.3,90.2,135,87.5,135z"/>
	<path class="st6" d="M98.6,103.9c8.1,0,11.3,1.8,11.1,6.1c-0.2,5.3-6.1,10.9-11.3,10.7c-5.3-0.1-11-6-10.9-11.2
		C87.6,105.6,90.9,103.9,98.6,103.9z"/>
	<path class="st7" d="M102.4,133.6c2.4,0.4,4.9,0.9,7.3,1.3c-1,7-4.9,10.9-11.1,10.9c-6.2,0-10.1-3.9-11.2-10.9c2.8,0,5.5-0.6,8-1.6
		c0.3,1.9-0.2,4.1,2.8,4.4C101.5,138,101.4,135.3,102.4,133.6z"/>
	<path class="st8" d="M102.4,133.6c-1.1,1.6-0.9,4.4-4.1,4.1c-3-0.3-2.6-2.5-2.8-4.4C97.9,130.4,100.2,131.5,102.4,133.6z"/>
</g>
</svg>
