<?xml version="1.0" encoding="utf-8"?>
<!-- Generator: Adobe Illustrator 26.5.0, SVG Export Plug-In . SVG Version: 6.00 Build 0)  -->
<svg version="1.1" id="Layer_1" xmlns="http://www.w3.org/2000/svg" xmlns:xlink="http://www.w3.org/1999/xlink" x="0px" y="0px"
	 viewBox="0 0 103.1 101.1" style="enable-background:new 0 0 103.1 101.1;" xml:space="preserve">
<style type="text/css">
	.st0{fill:#F7F6FB;}
	.st1{fill:#95B9E2;}
	.st2{fill:#7C81BF;}
	.st3{fill:#B4D8F2;}
	.st4{fill:#B5D8F2;}
	.st5{fill:#B5D7F2;}
	.st6{fill:#B4D7F2;}
	.st7{fill:#124C63;}
</style>
<g>
	<path class="st0" d="M77,78.2c0.3,0,0.5-0.3,0.7-0.5c3-3,6-6.1,9-9.1c0.6-0.6,0.6-0.7-0.2-1.1c-4.6-2.2-9.2-4.4-13.8-6.6
		c-1.2-0.5-2.2-1.3-3.5-1.6c-0.2-0.8-0.2-1.6-0.3-2.4c-0.2-2.7-0.7-5.3-1.2-8c0.2-0.2,0.4-0.5,0.7-0.7c3.5-3.5,7-7.1,10.5-10.6
		c0.4-0.4,0.5-0.6-0.2-0.8c-2.5-0.9-5-1.8-7.5-2.7c-3.1-1.1-6.1-2.3-9.2-3.3c-1.4-0.5-2.8-1.1-4.2-1.4c-0.2-0.2-0.4-0.4-0.6-0.6
		c-2.6-2.5-5.3-4.9-8.4-6.8c-1.5-0.9-3-1.9-4.7-2.5c-0.1-0.2-0.3-0.2-0.4-0.3c-2.2-1-4.4-1.8-6.8-2.4c-3.9-1-7.9-1.3-11.9-0.9
		c-2.7,0.3-5.3,0.7-7.8,1.7C17,17.6,17,17.8,16.9,18c-1.1,3.1-1.6,6.4-1.8,9.7c-0.1,2.8,0.2,5.6,0.8,8.4c0.6,3.1,1.6,6.1,3,8.9
		c0,0.1,0,0.1,0,0.2c2.1,4.3,4.8,8.2,8,11.7c0.6,0.7,1.4,1.3,1.8,2.1c0,0.3,0.1,0.6,0.2,0.9c1,2.7,2,5.4,2.9,8.1
		c1.4,3.9,2.7,7.7,4.1,11.6c0.3,1,0.4,1,1.1,0.2c3.2-3.2,6.4-6.5,9.6-9.7c0.5-0.5,0.9-1,1.4-1.4c2.3,0.4,4.6,0.8,7,1.1
		c1.1,0.1,2.3,0.1,3.4,0.4c0,0.1,0,0.2,0.1,0.3c2.5,5.4,5,10.8,7.6,16.2c0.5,1.1,1.5,1.2,2.3,0.4c2.7-2.7,5.4-5.5,8.1-8.2
		C76.7,78.7,77,78.5,77,78.2z"/>
	<path class="st1" d="M58.4,70.2c-1.1-0.3-2.2-0.3-3.4-0.4c-2.3-0.3-4.7-0.7-7-1.1c0,0-0.1-0.1-0.1-0.1c-3.3-0.8-6.6-1.8-9.7-3.3
		c-2.6-1.2-5-2.7-7.3-4.5c-0.7-0.6-1.3-1.4-2.2-1.8c-0.4-0.9-1.2-1.5-1.8-2.1c-3.2-3.5-5.9-7.4-8-11.7c0,0,0-0.1,0-0.2
		c0.9-0.1,1.9-0.2,2.8-0.3c4.5-0.9,8.6-2.7,12.2-5.6c0.8-0.6,1.4-1.5,2.4-1.9c0.3,0.1,0.4,0.3,0.6,0.5c1.3,1.3,2.6,2.6,3.8,3.9
		c0.4,0.4,0.6,0.5,1.1,0c2.3-2.4,4.2-5.1,5.7-8.1c0.3-0.5,0.5-0.6,1-0.3c0.8,0.5,1.7,0.9,2.5,1.3c0.5,0.2,0.6,0.5,0.3,1
		c-1,1.9-2.1,3.7-3.4,5.4c-1.1,1.5-2.2,2.9-3.6,4.1c-0.3,0-0.4-0.2-0.6-0.4c-0.6-0.6-1.1-1.2-1.7-1.7c-0.8-0.8-0.8-0.8-1.5,0
		c-1,1-2.1,1.8-3.1,2.6c-1.5,1.1-3.1,2.1-4.7,3c-0.4,0.2-0.5,0.4-0.3,0.8c0.5,0.9,0.9,1.9,1.4,2.9c0.2,0.4,0.4,0.4,0.7,0.2
		c2.8-1.5,5.5-3.3,7.9-5.4c0.6-0.6,1.1-1.3,1.9-1.6c0.2,0.2,0.4,0.3,0.6,0.5c7.8,7.9,15.5,15.7,23.3,23.6c0.2,0.2,0.3,0.3,0.4,0.5
		c-0.3,0.2-0.6,0.3-0.9,0.3c-2,0-3.9,0.3-5.9,0.1C60.8,70.2,59.6,70.2,58.4,70.2z"/>
	<path class="st2" d="M68.8,69.9c-0.1-0.2-0.3-0.4-0.4-0.5C60.6,61.5,52.8,53.6,45,45.8c-0.2-0.2-0.4-0.3-0.6-0.5c0-0.1,0-0.2,0-0.3
		c1.4-1.2,2.5-2.7,3.6-4.1c1.3-1.7,2.4-3.5,3.4-5.4c0.3-0.5,0.2-0.8-0.3-1c-0.9-0.4-1.7-0.8-2.5-1.3c-0.5-0.3-0.7-0.2-1,0.3
		c-1.5,3-3.4,5.7-5.7,8.1c-0.4,0.4-0.7,0.4-1.1,0c-1.2-1.3-2.5-2.6-3.8-3.9c-0.2-0.2-0.4-0.4-0.6-0.5c0-0.1,0-0.2,0-0.3
		c0.1-0.1,0.3-0.2,0.4-0.3c2.2-2.4,4-5.1,5.3-8.2c1.2-2.8,1.9-5.8,2.1-8.9c1.7,0.6,3.2,1.6,4.7,2.5c3.1,1.9,5.8,4.3,8.4,6.8
		c0.2,0.2,0.4,0.4,0.6,0.6c0.1,0.3,0.3,0.4,0.4,0.6c2.9,3,4.9,6.6,6.6,10.4c1.2,2.8,2,5.8,2.8,8.7c0.5,2.7,1,5.3,1.2,8
		c0.1,0.8,0,1.6,0.3,2.4c-0.2,0.9,0.1,1.8,0.1,2.7c0,2.6,0,5.2-0.1,7.8C69,69.9,68.9,69.9,68.8,69.9z"/>
	<path class="st3" d="M36.4,36.8c0,0.1,0,0.2,0,0.3c-1,0.4-1.6,1.3-2.4,1.9c-3.6,2.9-7.7,4.7-12.2,5.6c-0.9,0.2-1.9,0.2-2.8,0.3
		c-1.4-2.8-2.4-5.8-3-8.9c-0.6-2.8-0.9-5.6-0.8-8.4c0.1-3.3,0.7-6.6,1.8-9.7c0.1-0.2,0.1-0.4,0.3-0.5c0,0.3,0.3,0.5,0.4,0.7
		c1.6,1.6,3.2,3.2,4.8,4.8c0.7,0.7,1.4,1.3,1.9,2c-0.4,0.4-0.7,0.8-1.1,1.2c-0.2,0.2-0.3,0.4,0,0.7c0.9,0.9,1.8,1.8,2.6,2.7
		c0.3,0.3,0.4,0.3,0.7,0c0.4-0.4,0.8-0.8,1.3-1.2c0.1,0.1,0.2,0.3,0.3,0.4c2.6,2.6,5.2,5.2,7.8,7.8C36,36.7,36.1,36.8,36.4,36.8z"/>
	<path class="st1" d="M24.4,25.1c-0.6-0.8-1.3-1.4-1.9-2c-1.6-1.6-3.2-3.2-4.8-4.8c-0.2-0.2-0.5-0.3-0.4-0.7c2.5-1,5.1-1.5,7.8-1.7
		c4-0.4,8-0.1,11.9,0.9c2.3,0.6,4.6,1.4,6.8,2.4c0.2,0.1,0.3,0.1,0.4,0.3c-0.1,3.1-0.9,6-2.1,8.9c-1.3,3.1-3.1,5.8-5.3,8.2
		c-0.1,0.1-0.3,0.2-0.4,0.3c-0.2,0-0.4-0.2-0.5-0.3c-2.6-2.6-5.2-5.2-7.8-7.8c-0.1-0.1-0.2-0.2-0.3-0.4c0.4-0.4,0.7-0.8,1.1-1.2
		c0.2-0.2,0.3-0.4,0-0.7c-0.9-0.8-1.7-1.7-2.6-2.6c-0.3-0.4-0.6-0.3-0.8,0C25.2,24.3,24.8,24.7,24.4,25.1z"/>
	<path class="st1" d="M69.1,69.9c0.2-2.6,0.2-5.2,0.1-7.8c0-0.9-0.3-1.8-0.1-2.7c1.3,0.3,2.4,1,3.5,1.6c4.6,2.2,9.2,4.4,13.8,6.6
		c0.8,0.4,0.8,0.4,0.2,1.1c-3,3-6,6.1-9,9.1c-0.2,0.2-0.4,0.4-0.7,0.5c-0.2-0.2-0.3-0.4-0.5-0.6c-2.3-2.3-4.6-4.6-6.9-6.9
		C69.4,70.4,69.1,70.2,69.1,69.9z"/>
	<path class="st4" d="M69.1,69.9c0,0.4,0.3,0.5,0.5,0.7c2.3,2.3,4.6,4.6,6.9,6.9c0.2,0.2,0.4,0.4,0.5,0.6c0,0.3-0.3,0.5-0.5,0.7
		c-2.7,2.7-5.4,5.5-8.1,8.2c-0.8,0.9-1.8,0.7-2.3-0.4c-2.5-5.4-5-10.8-7.6-16.2c0-0.1-0.1-0.2-0.1-0.3c1.2,0,2.4,0,3.5,0.1
		c2,0.2,3.9-0.2,5.9-0.1c0.3,0,0.6-0.1,0.9-0.3C68.9,69.9,69,69.9,69.1,69.9z"/>
	<path class="st5" d="M67.6,49c-0.8-2.9-1.6-5.9-2.8-8.7c-1.7-3.8-3.7-7.4-6.6-10.4c-0.2-0.2-0.4-0.3-0.4-0.6
		c1.5,0.3,2.8,0.9,4.2,1.4c3.1,1.1,6.1,2.2,9.2,3.3c2.5,0.9,5,1.8,7.5,2.7c0.7,0.2,0.6,0.4,0.2,0.8c-3.5,3.5-7,7.1-10.5,10.6
		C68.1,48.5,67.9,48.8,67.6,49z"/>
	<path class="st4" d="M28.8,59c0.9,0.4,1.5,1.2,2.2,1.8c2.3,1.8,4.7,3.3,7.3,4.5c3.1,1.5,6.3,2.6,9.7,3.3c0,0,0.1,0.1,0.1,0.1
		c-0.5,0.5-0.9,1-1.4,1.4c-3.2,3.2-6.4,6.5-9.6,9.7c-0.7,0.7-0.8,0.7-1.1-0.2c-1.4-3.9-2.7-7.7-4.1-11.6c-1-2.7-2-5.4-2.9-8.1
		C28.9,59.6,28.8,59.3,28.8,59z"/>
	<path class="st6" d="M44.5,45c0,0.1,0,0.2,0,0.3c-0.8,0.3-1.3,1.1-1.9,1.6c-2.4,2.1-5.1,3.9-7.9,5.4c-0.3,0.2-0.5,0.2-0.7-0.2
		c-0.4-1-0.9-1.9-1.4-2.9c-0.2-0.4-0.1-0.6,0.3-0.8c1.6-0.9,3.2-1.8,4.7-3c1.1-0.8,2.2-1.7,3.1-2.6c0.8-0.8,0.7-0.8,1.5,0
		c0.6,0.6,1.1,1.2,1.7,1.7C44,44.8,44.2,45,44.5,45z"/>
	<path class="st7" d="M24.4,25.1c0.4-0.4,0.8-0.7,1.1-1.1c0.3-0.3,0.5-0.4,0.8,0c0.8,0.9,1.7,1.8,2.6,2.6c0.3,0.3,0.2,0.4,0,0.7
		c-0.4,0.4-0.7,0.8-1.1,1.2c-0.4,0.4-0.9,0.8-1.3,1.2c-0.3,0.3-0.4,0.3-0.7,0c-0.9-0.9-1.7-1.8-2.6-2.7c-0.3-0.3-0.2-0.4,0-0.7
		C23.7,25.8,24.1,25.4,24.4,25.1z"/>
</g>
</svg>
